<svg height='300px' width='300px'  fill="#000000" xmlns="http://www.w3.org/2000/svg" xmlns:xlink="http://www.w3.org/1999/xlink" version="1.1" x="0px" y="0px" viewBox="0 0 65 100" enable-background="new 0 0 65 100" xml:space="preserve"><path fill-rule="evenodd" clip-rule="evenodd" fill="#000000" d="M7.033,17.833C11.117,9.09,19.09-0.43,34.496,0.015  c32.354,0.935,34.599,33.458,26.619,48.91C54.361,62.003,37.176,73.598,35.65,79.31c-1.232,4.615-3.105,20.672-17.436,20.69  C6.068,100.015-0.852,90.669,0.083,80.201c0.69-7.721,5.962-14.199,9-9.965c3.531,4.918-7.516,8.861-2.08,17.441  c2.525,3.986,5.984,6.543,11.221,6.543c10.512,0,10.78-13.139,12.905-17.01c3.736-6.806,25.417-24.316,26.37-42.741  c0.748-14.455-7.468-27.722-25.684-26.667C14.609,8.8,10.744,22.818,10.121,30.167c-0.518,6.107,1.484,12.905-2.087,12.777  C4.572,42.818,2.64,27.242,7.033,17.833z"></path><path fill-rule="evenodd" clip-rule="evenodd" fill="#000000" d="M40.168,47.43c2.461,1.106,6.641-5.468,7.794-11.528  c1.433-7.539,0.313-14.268-5.923-18.878c-11.48-8.491-25.56-1.744-27.712,11.262c-2.281,13.785,10.633,12.551,6.74,21.935  c-1.189,2.869-5.042,6.259-6.521,8.732c-2.174,3.633-1.31,8.539,1.855,10.439c7.563,4.543,16.244-5.873,17.107-18.135  c0.735-10.429-13.108-14.59-12.27-22.453c0.726-6.795,6.718-11.078,13.63-9.351c6.913,1.728,11.034,11.589,7.419,19.752  C40.631,42.948,37.675,46.309,40.168,47.43z"></path></svg>
