<svg height='300px' width='300px'  fill="#000000" xmlns:dc="http://purl.org/dc/elements/1.1/" xmlns:cc="http://creativecommons.org/ns#" xmlns:rdf="http://www.w3.org/1999/02/22-rdf-syntax-ns#" xmlns:svg="http://www.w3.org/2000/svg" xmlns="http://www.w3.org/2000/svg" xmlns:sodipodi="http://sodipodi.sourceforge.net/DTD/sodipodi-0.dtd" xmlns:inkscape="http://www.inkscape.org/namespaces/inkscape" version="1.1" x="0px" y="0px" viewBox="0 0 100 100"><g transform="translate(0,-952.36218)"><path style="text-indent:0;text-transform:none;direction:ltr;block-progression:tb;baseline-shift:baseline;color:#000000;enable-background:accumulate;" d="m 8.9999998,970.36216 c -1.62745,0 -3,1.37255 -3,3 l 0,58.00004 c 0,1.6274 1.37255,3 3,3 l 82.0000002,0 c 1.62745,0 3,-1.3726 3,-3 l 0,-58.00004 c 0,-1.62745 -1.37255,-3 -3,-3 l -82.0000002,0 z m 2.1875002,4 77.625,0 L 50,1005.7997 11.1875,974.36216 z M 9.9999998,978.51841 48.75,1009.8934 a 2.0001999,2.0001999 0 0 0 2.5,0 L 90,978.51841 l 0,51.84379 -80.0000002,0 0,-51.84379 z" fill="#000000" fill-opacity="1" stroke="none" marker="none" visibility="visible" display="inline" overflow="visible"></path></g></svg>
